<?xml version="1.0" encoding="UTF-8" standalone="no"?><!DOCTYPE svg PUBLIC "-//W3C//DTD SVG 1.1//EN" "http://www.w3.org/Graphics/SVG/1.1/DTD/svg11.dtd"><svg width="100%" height="100%" viewBox="0 0 434 61" version="1.1" xmlns="http://www.w3.org/2000/svg" xmlns:xlink="http://www.w3.org/1999/xlink" xml:space="preserve" xmlns:serif="http://www.serif.com/" style="fill-rule:evenodd;clip-rule:evenodd;stroke-linejoin:round;stroke-miterlimit:2;"><g><path d="M0,46.701l3.803,0l0,-34.151l-3.803,0l0,-12.55l30.881,0c8.468,0 15.199,2.32 20.194,6.96c4.995,4.639 7.492,12.182 7.492,22.628c-0,10.445 -2.497,17.988 -7.492,22.628c-4.995,4.64 -11.726,6.959 -20.194,6.959l-30.881,0l-0,-12.474Zm29.512,0c1.724,0 3.017,-0.456 3.879,-1.369c0.862,-0.912 1.293,-2.332 1.293,-4.259l-0,-22.97c-0,-3.753 -1.724,-5.629 -5.172,-5.629l-4.412,0l0,34.227l4.412,0Z" style="fill:#f00;fill-rule:nonzero;"/><path d="M103.844,46.701l0,12.474l-20.08,0l0,-5.172c-1.115,1.623 -2.674,3.068 -4.677,4.336c-2.003,1.267 -4.45,1.901 -7.34,1.901c-3.803,0 -6.795,-1.014 -8.975,-3.042c-2.181,-2.028 -3.271,-4.893 -3.271,-8.595c-0,-9.584 8.138,-14.502 24.416,-14.756c-0.153,-1.724 -0.812,-2.903 -1.978,-3.537c-1.166,-0.634 -3.144,-0.95 -5.933,-0.95c-2.282,-0 -4.728,0.24 -7.34,0.722c-2.611,0.482 -5.007,1.128 -7.187,1.94l-0,-13.996c2.687,-0.659 5.603,-1.191 8.747,-1.597c3.143,-0.405 6.211,-0.608 9.203,-0.608c7.555,-0 12.956,1.369 16.201,4.107c3.245,2.738 4.868,6.972 4.868,12.702l-0,14.071l3.346,0Zm-20.08,-5.324c-2.281,0 -4.044,0.304 -5.286,0.913c-1.242,0.608 -1.863,1.623 -1.863,3.042c-0,0.862 0.266,1.56 0.798,2.092c0.533,0.532 1.281,0.799 2.244,0.799c1.318,-0 2.333,-0.558 3.043,-1.674c0.709,-1.115 1.064,-2.687 1.064,-4.715l0,-0.457Z" style="fill:#f00;fill-rule:nonzero;"/><path d="M116.156,59.175l-9.584,-29.815l-3.194,-0l-0,-12.474l23.502,-0l0,12.474l-3.194,-0l4.031,15.06l0.761,-0l4.031,-15.06l-3.195,-0l0,-12.474l22.058,-0l0,12.474l-3.195,-0l-9.355,29.815l-22.666,0Z" style="fill:#f00;fill-rule:nonzero;"/><path d="M157.903,12.702l-0,-12.702l15.516,0l0,12.702l-15.516,0Zm-3.651,46.473l-0,-12.474l3.346,0l0,-17.341l-3.346,-0l-0,-12.474l20.84,-0l0,29.815l3.347,0l0,12.474l-24.187,0Z" style="fill:#f00;fill-rule:nonzero;"/><path d="M196.303,60.24c-5.172,0 -9.064,-1.927 -11.676,-5.78c-2.611,-3.854 -3.917,-9.33 -3.917,-16.429c0,-7.1 1.306,-12.576 3.917,-16.43c2.612,-3.853 6.504,-5.78 11.676,-5.78c2.586,-0 4.88,0.634 6.883,1.901c2.003,1.268 3.639,2.713 4.906,4.336l0,-9.584l-4.487,0l-0,-12.474l21.981,0l0,46.701l3.347,0l0,12.474l-20.841,0l0,-5.172c-1.267,1.623 -2.903,3.068 -4.906,4.336c-2.003,1.267 -4.297,1.901 -6.883,1.901Zm7.378,-13.539c1.47,0 2.573,-0.393 3.308,-1.178c0.736,-0.786 1.103,-2.016 1.103,-3.689l0,-7.607c0,-1.673 -0.367,-2.903 -1.103,-3.689c-0.735,-0.785 -1.838,-1.178 -3.308,-1.178c-1.471,-0 -2.574,0.393 -3.309,1.178c-0.735,0.786 -1.103,2.016 -1.103,3.689l0,7.607c0,1.673 0.368,2.903 1.103,3.689c0.735,0.785 1.838,1.178 3.309,1.178Z" style="fill:#f00;fill-rule:nonzero;"/><path d="M313.686,12.474l-3.803,0l0,34.227l3.803,0l0,12.474l-28.751,0l0,-12.474l3.651,0l0,-12.55l-10.648,0l-0,12.55l3.65,0l0,12.474l-28.751,0l0,-12.474l3.803,0l0,-34.227l-3.803,0l0,-12.474l28.751,-0l0,12.474l-3.65,0l-0,11.561l10.648,0l0,-11.561l-3.651,0l0,-12.474l28.751,-0l0,12.474Z" style="fill:#f00;fill-rule:nonzero;"/><path d="M360.17,46.701l0,12.474l-20.08,0l-0,-5.172c-1.116,1.623 -2.675,3.068 -4.678,4.336c-2.003,1.267 -4.449,1.901 -7.34,1.901c-3.803,0 -6.794,-1.014 -8.975,-3.042c-2.18,-2.028 -3.27,-4.893 -3.27,-8.595c-0,-9.584 8.138,-14.502 24.415,-14.756c-0.152,-1.724 -0.811,-2.903 -1.977,-3.537c-1.167,-0.634 -3.144,-0.95 -5.933,-0.95c-2.282,-0 -4.729,0.24 -7.34,0.722c-2.612,0.482 -5.007,1.128 -7.188,1.94l0,-13.996c2.688,-0.659 5.603,-1.191 8.747,-1.597c3.144,-0.405 6.212,-0.608 9.204,-0.608c7.555,-0 12.955,1.369 16.201,4.107c3.245,2.738 4.867,6.972 4.867,12.702l0,14.071l3.347,0Zm-20.08,-5.324c-2.282,0 -4.044,0.304 -5.286,0.913c-1.243,0.608 -1.864,1.623 -1.864,3.042c0,0.862 0.266,1.56 0.799,2.092c0.532,0.532 1.28,0.799 2.244,0.799c1.318,-0 2.332,-0.558 3.042,-1.674c0.71,-1.115 1.065,-2.687 1.065,-4.715l-0,-0.457Z" style="fill:#f00;fill-rule:nonzero;"/><path d="M364.104,59.252l0,-12.551l3.347,0l-0,-34.227l-3.347,0l0,-12.474l20.841,0l-0,46.701l3.346,0l0,12.551l-24.187,-0Z" style="fill:#f00;fill-rule:nonzero;"/><path d="M413.392,60.24c-7.201,0 -12.829,-1.889 -16.886,-5.666c-4.057,-3.778 -6.085,-9.292 -6.085,-16.543c0,-7.252 2.028,-12.766 6.085,-16.544c4.057,-3.777 9.685,-5.666 16.886,-5.666c7.149,-0 12.309,1.863 15.478,5.59c3.169,3.727 4.754,8.354 4.754,13.881l-0,5.477l-24.644,-0l0,0.456c0,1.876 0.558,3.258 1.673,4.145c1.116,0.888 2.967,1.331 5.553,1.331c3.093,0 6.034,-0.228 8.823,-0.684c2.789,-0.456 5.223,-1.04 7.302,-1.749l-0,12.169c-1.775,0.964 -4.374,1.838 -7.796,2.624c-3.423,0.786 -7.138,1.179 -11.143,1.179Zm4.411,-27.838l0,-0.913c0,-1.724 -0.368,-2.966 -1.103,-3.727c-0.735,-0.76 -1.838,-1.141 -3.308,-1.141c-1.471,0 -2.574,0.393 -3.309,1.179c-0.735,0.786 -1.103,2.016 -1.103,3.689l0,0.913l8.823,-0Z" style="fill:#f00;fill-rule:nonzero;"/></g></svg>