<?xml version="1.0" encoding="UTF-8" standalone="no"?><!DOCTYPE svg PUBLIC "-//W3C//DTD SVG 1.1//EN" "http://www.w3.org/Graphics/SVG/1.1/DTD/svg11.dtd"><svg width="100%" height="100%" viewBox="0 0 540 302" version="1.1" xmlns="http://www.w3.org/2000/svg" xmlns:xlink="http://www.w3.org/1999/xlink" xml:space="preserve" xmlns:serif="http://www.serif.com/" style="fill-rule:evenodd;clip-rule:evenodd;stroke-linejoin:round;stroke-miterlimit:2;"><path d="M13.676,2l-0,53.512l19.481,-0l0,191.194l-19.481,0l-0,53.086l-11.676,0l-0,-297.792l11.676,0Zm232.044,0l291.78,0l0,297.792l-291.78,0c10.918,-5.862 20.785,-13.268 29.597,-22.213c25.587,-25.976 38.38,-68.203 38.38,-126.683c-0,-58.479 -12.793,-100.707 -38.38,-126.682c-8.812,-8.946 -18.679,-16.351 -29.597,-22.214Zm-80.865,244.706c8.832,0 15.456,-2.555 19.872,-7.664c4.415,-5.11 6.623,-13.059 6.623,-23.846l0,-128.599c0,-21.007 -8.831,-31.511 -26.495,-31.511l-22.599,0l0,191.62l22.599,0Z" style="fill:#f00;"/></svg>